<svg xmlns="http://www.w3.org/2000/svg" xmlns:xlink="http://www.w3.org/1999/xlink" fill="none" version="1.1" width="56" height="56" viewBox="0 0 56 56"><defs><clipPath id="master_svg0_264_10192"><rect x="0" y="0" width="56" height="56" rx="0"/></clipPath></defs><g clip-path="url(#master_svg0_264_10192)"><g style="opacity:0.30000001192092896;"><path d="M11.666666030883789,44.33336603088379L44.33336603088379,44.33336603088379L44.33336603088379,11.666666030883789L11.666666030883789,11.666666030883789L11.666666030883789,44.33336603088379ZM34.99996603088379,16.33333603088379L39.66666603088379,16.33333603088379L39.66666603088379,20.99999603088379L34.99996603088379,20.99999603088379L34.99996603088379,16.33333603088379ZM34.99996603088379,25.66666603088379L39.66666603088379,25.66666603088379L39.66666603088379,30.333366030883788L34.99996603088379,30.333366030883788L34.99996603088379,25.66666603088379ZM25.66666603088379,16.33333603088379L30.333366030883788,16.33333603088379L30.333366030883788,20.99999603088379L25.66666603088379,20.99999603088379L25.66666603088379,16.33333603088379ZM25.66666603088379,25.66666603088379L30.333366030883788,25.66666603088379L30.333366030883788,30.333366030883788L25.66666603088379,30.333366030883788L25.66666603088379,25.66666603088379ZM16.33333603088379,16.33333603088379L20.99999603088379,16.33333603088379L20.99999603088379,20.99999603088379L16.33333603088379,20.99999603088379L16.33333603088379,16.33333603088379ZM16.33333603088379,25.66666603088379L20.99999603088379,25.66666603088379L20.99999603088379,30.333366030883788L16.33333603088379,30.333366030883788L16.33333603088379,25.66666603088379Z" fill="#A855F7" fill-opacity="1" style="mix-blend-mode:passthrough"/></g><g><path d="M16.333332061767578,16.333332061767578L21.000002061767578,16.333332061767578L21.000002061767578,21.000002061767578L16.333332061767578,21.000002061767578L16.333332061767578,16.333332061767578ZM16.333332061767578,25.66666206176758L21.000002061767578,25.66666206176758L21.000002061767578,30.333332061767578L16.333332061767578,30.333332061767578L16.333332061767578,25.66666206176758Z" fill="#A855F7" fill-opacity="1" style="mix-blend-mode:passthrough"/></g><g><path d="M7,7L7,49L49,49L49,7L7,7ZM44.3333,44.3333L11.66667,44.3333L11.66667,11.66667L44.3333,11.66667L44.3333,44.3333Z" fill="#A855F7" fill-opacity="1" style="mix-blend-mode:passthrough"/></g><g><path d="M25.66666603088379,16.333332061767578L30.33333603088379,16.333332061767578L30.33333603088379,21.000002061767578L25.66666603088379,21.000002061767578L25.66666603088379,16.333332061767578ZM34.99999603088379,25.66666206176758L39.66666603088379,25.66666206176758L39.66666603088379,30.333332061767578L34.99999603088379,30.333332061767578L34.99999603088379,25.66666206176758ZM25.66666603088379,25.66666206176758L30.33333603088379,25.66666206176758L30.33333603088379,30.333332061767578L25.66666603088379,30.333332061767578L25.66666603088379,25.66666206176758ZM34.99999603088379,16.333332061767578L39.66666603088379,16.333332061767578L39.66666603088379,21.000002061767578L34.99999603088379,21.000002061767578L34.99999603088379,16.333332061767578Z" fill="#A855F7" fill-opacity="1" style="mix-blend-mode:passthrough"/></g><g><path d="M16.333251953125,16.333343505859375L20.999921953125,16.333343505859375L20.999921953125,21.000013505859375L16.333251953125,21.000013505859375L16.333251953125,16.333343505859375ZM16.333251953125,25.666673505859375L20.999921953125,25.666673505859375L20.999921953125,30.333343505859375L16.333251953125,30.333343505859375L16.333251953125,25.666673505859375Z" fill="#A855F7" fill-opacity="1" style="mix-blend-mode:passthrough"/></g></g></svg>