<svg xmlns="http://www.w3.org/2000/svg" xmlns:xlink="http://www.w3.org/1999/xlink" fill="none" version="1.1" width="17.5" height="20" viewBox="0 0 17.5 20"><defs><clipPath id="master_svg0_31_843"><rect x="0" y="0" width="17.5" height="20" rx="0"/></clipPath></defs><g clip-path="url(#master_svg0_31_843)"><g transform="matrix(1,0,0,-1,0,35.859375)"><g><path d="M0,31.6796875Q0,32.2265875,0.351562,32.5780875Q0.703125,32.9296875,1.25,32.9296875L16.25,32.9296875Q16.7969,32.9296875,17.1484,32.5780875Q17.5,32.2265875,17.5,31.6796875Q17.5,31.1327875,17.1484,30.781287499999998Q16.7969,30.4296875,16.25,30.4296875L1.25,30.4296875Q0.703125,30.4296875,0.351562,30.781287499999998Q0,31.1327875,0,31.6796875ZM0,25.4296875Q0,25.9765675,0.351562,26.3281275Q0.703125,26.6796875,1.25,26.6796875L16.25,26.6796875Q16.7969,26.6796875,17.1484,26.3281275Q17.5,25.9765675,17.5,25.4296875Q17.5,24.8828075,17.1484,24.5312475Q16.7969,24.1796875,16.25,24.1796875L1.25,24.1796875Q0.703125,24.1796875,0.351562,24.5312475Q0,24.8828075,0,25.4296875ZM17.5,19.1796875Q17.5,18.6328125,17.1484,18.2812495Q16.7969,17.9296875,16.25,17.9296875L1.25,17.9296875Q0.703125,17.9296875,0.351562,18.2812495Q0,18.6328125,0,19.1796875Q0,19.7265675,0.351562,20.0781275Q0.703125,20.4296875,1.25,20.4296875L16.25,20.4296875Q16.7969,20.4296875,17.1484,20.0781275Q17.5,19.7265675,17.5,19.1796875Z" fill="#A855F7" fill-opacity="1" style="mix-blend-mode:passthrough"/></g></g></g></svg>